<svg width="1298" height="822" viewBox="0 0 1298 822" fill="none" xmlns="http://www.w3.org/2000/svg">
<path d="M597.425 632.78L416.06 737.491L320.448 689.064L604.371 525.141L597.425 632.78Z" fill="#FFFFFF"/>
<path d="M187.12 677.915L82.4087 496.551L130.836 400.939L294.759 684.861L187.12 677.915Z" fill="#FFFFFF"/>
<path d="M327.273 164.864L145.908 269.575L140.042 376.59L423.964 212.668L327.273 164.864Z" fill="#FFFFFF"/>
<path d="M662.297 405.687L557.586 224.322L450.57 218.456L614.492 502.378L662.297 405.687Z" fill="#FFFFFF"/>
<path d="M1297.3 169.727L1297.3 379.149L1207.56 437.737L1207.56 109.892L1297.3 169.727Z" fill="#FFFFFF"/>
<path d="M1131.24 547.63L921.817 547.629L863.229 457.884L1191.07 457.884L1131.24 547.63Z" fill="#FFFFFF"/>
<path d="M757 169.727L757 379.149L846.745 437.737L846.745 109.892L757 169.727Z" fill="#FFFFFF"/>
<path d="M1133.07 2.52866e-05L923.649 6.9784e-06L865.061 89.7453L1192.91 89.7454L1133.07 2.52866e-05Z" fill="#FFFFFF"/>
</svg>
