<svg width="208" height="84" viewBox="0 0 208 84" fill="none" xmlns="http://www.w3.org/2000/svg">
<path fill-rule="evenodd" clip-rule="evenodd" d="M207.5 0H179.214V2.57143H204.929V28.2857H207.5V0ZM207.5 55.7143V84H179.214V81.4286H204.929V55.7143H207.5ZM126.071 2.57143H151.786V0H123.5V28.2857H126.071V2.57143ZM151.786 81.4286V84H123.5V55.7143H126.071V81.4286H151.786Z" fill="#8D8D8D"/>
<rect x="130.5" y="7" width="69" height="69" fill="#474747"/>
<circle cx="147" cy="20.5" r="6" transform="rotate(180 147 20.5)" stroke="white"/>
<circle cx="147" cy="20.5" r="2.5" transform="rotate(180 147 20.5)" fill="white"/>
<path d="M141 21H97.5L55.5 45H0" stroke="white"/>
<path d="M135.384 45.3244V38.7582H143.582V38.3742H135.384V32.384H144.101V32H135V45.7084H144.177V45.3244H135.384ZM151.569 35.8399L148.171 40.3134L144.849 35.8399H144.35L147.94 40.6014L144.005 45.7084H144.465L148.171 40.8894L151.896 45.7084H152.376L148.42 40.6014L152.03 35.8399H151.569ZM153.527 49.0875V42.9437H153.566C153.796 43.8397 154.251 44.5597 154.929 45.1036C155.607 45.6476 156.471 45.9196 157.521 45.9196C158.199 45.9196 158.801 45.782 159.326 45.5068C159.851 45.2316 160.289 44.8573 160.641 44.3837C160.993 43.9101 161.262 43.3597 161.447 42.7325C161.633 42.1053 161.726 41.4461 161.726 40.755C161.726 40.0126 161.63 39.3278 161.438 38.7006C161.246 38.0734 160.967 37.5295 160.603 37.0687C160.238 36.6079 159.796 36.2495 159.278 35.9935C158.759 35.7375 158.174 35.6095 157.521 35.6095C157.022 35.6095 156.558 35.6831 156.129 35.8303C155.7 35.9775 155.319 36.1855 154.987 36.4543C154.654 36.7231 154.366 37.0399 154.123 37.4047C153.879 37.7694 153.694 38.1694 153.566 38.6046H153.527V35.8399H153.144V49.0875H153.527ZM157.521 45.5548C156.318 45.5548 155.351 45.142 154.622 44.3165C153.892 43.4909 153.527 42.3037 153.527 40.755C153.527 40.115 153.617 39.507 153.796 38.931C153.975 38.355 154.235 37.8494 154.574 37.4143C154.913 36.9791 155.332 36.6335 155.831 36.3775C156.331 36.1215 156.894 35.9935 157.521 35.9935C158.161 35.9935 158.721 36.1215 159.201 36.3775C159.681 36.6335 160.078 36.9823 160.391 37.4239C160.705 37.8654 160.942 38.371 161.102 38.9406C161.262 39.5102 161.342 40.115 161.342 40.755C161.342 41.3309 161.268 41.9037 161.121 42.4733C160.974 43.0429 160.747 43.5549 160.439 44.0093C160.132 44.4637 159.739 44.8348 159.259 45.1228C158.779 45.4108 158.199 45.5548 157.521 45.5548ZM163.838 45.7084V40.1214C163.838 39.5838 163.914 39.059 164.068 38.547C164.222 38.035 164.458 37.5838 164.778 37.1935C165.098 36.8031 165.505 36.4959 165.998 36.2719C166.49 36.0479 167.076 35.9551 167.754 35.9935V35.6095C167.166 35.5967 166.65 35.6607 166.209 35.8015C165.767 35.9423 165.386 36.1343 165.066 36.3775C164.746 36.6207 164.49 36.9055 164.298 37.2319C164.106 37.5583 163.966 37.907 163.876 38.2782H163.838V35.8399H163.454V45.7084H163.838ZM168.234 40.851H176.49C176.516 40.1726 176.448 39.5198 176.288 38.8926C176.128 38.2654 175.872 37.7086 175.521 37.2223C175.169 36.7359 174.714 36.3455 174.157 36.0511C173.601 35.7567 172.938 35.6095 172.17 35.6095C171.62 35.6095 171.082 35.7247 170.557 35.9551C170.033 36.1855 169.572 36.5215 169.175 36.9631C168.778 37.4047 168.458 37.9454 168.215 38.5854C167.972 39.2254 167.85 39.955 167.85 40.7742C167.85 41.5037 167.934 42.1853 168.1 42.8189C168.266 43.4525 168.522 44.0029 168.868 44.4701C169.213 44.9373 169.658 45.2988 170.202 45.5548C170.746 45.8108 171.402 45.9324 172.17 45.9196C173.297 45.9196 174.244 45.6028 175.012 44.9692C175.78 44.3357 176.234 43.4429 176.375 42.2909H175.991C175.824 43.3789 175.399 44.1949 174.714 44.7389C174.029 45.2828 173.169 45.5548 172.132 45.5548C171.428 45.5548 170.833 45.4332 170.346 45.19C169.86 44.9468 169.463 44.6141 169.156 44.1917C168.849 43.7693 168.621 43.2733 168.474 42.7037C168.327 42.1341 168.247 41.5165 168.234 40.851ZM176.106 40.467H168.234C168.273 39.7758 168.401 39.155 168.618 38.6046C168.836 38.0542 169.121 37.5838 169.473 37.1935C169.825 36.8031 170.234 36.5055 170.701 36.3007C171.169 36.0959 171.671 35.9935 172.209 35.9935C172.849 35.9935 173.412 36.1119 173.898 36.3487C174.385 36.5855 174.791 36.9087 175.117 37.3183C175.444 37.7278 175.69 38.2046 175.856 38.7486C176.023 39.2926 176.106 39.8654 176.106 40.467ZM184.458 38.7582H184.842C184.842 37.6574 184.522 36.8575 183.882 36.3583C183.242 35.8591 182.372 35.6095 181.271 35.6095C180.656 35.6095 180.138 35.6863 179.716 35.8399C179.293 35.9935 178.948 36.1919 178.679 36.4351C178.41 36.6783 178.218 36.9471 178.103 37.2415C177.988 37.5359 177.93 37.8174 177.93 38.0862C177.93 38.6238 178.026 39.0526 178.218 39.3726C178.41 39.6926 178.711 39.9422 179.12 40.1214C179.402 40.2494 179.722 40.3646 180.08 40.467C180.439 40.5694 180.855 40.6782 181.328 40.7934C181.751 40.8958 182.167 40.9982 182.576 41.1006C182.986 41.2029 183.347 41.3405 183.661 41.5133C183.975 41.6861 184.231 41.9069 184.429 42.1757C184.627 42.4445 184.727 42.7965 184.727 43.2317C184.727 43.6541 184.627 44.0125 184.429 44.3069C184.231 44.6013 183.978 44.8412 183.671 45.0268C183.363 45.2124 183.021 45.3468 182.644 45.43C182.266 45.5132 181.898 45.5548 181.54 45.5548C180.375 45.5548 179.482 45.2956 178.861 44.7773C178.24 44.2589 177.93 43.4429 177.93 42.3293H177.546C177.546 43.5709 177.882 44.4797 178.554 45.0556C179.226 45.6316 180.221 45.9196 181.54 45.9196C181.962 45.9196 182.388 45.8716 182.816 45.7756C183.245 45.6796 183.629 45.5228 183.968 45.3052C184.307 45.0876 184.583 44.8061 184.794 44.4605C185.005 44.1149 185.111 43.6925 185.111 43.1933C185.111 42.7197 185.018 42.3357 184.832 42.0413C184.647 41.7469 184.403 41.5037 184.103 41.3117C183.802 41.1198 183.463 40.9694 183.085 40.8606C182.708 40.7518 182.327 40.6462 181.943 40.5438C181.405 40.403 180.935 40.2814 180.532 40.179C180.128 40.0766 179.754 39.955 179.408 39.8142C179.076 39.6734 178.81 39.4718 178.612 39.2094C178.413 38.947 178.314 38.5726 178.314 38.0862C178.314 37.9966 178.34 37.8366 178.391 37.6062C178.442 37.3759 178.564 37.1423 178.756 36.9055C178.948 36.6687 179.242 36.4575 179.639 36.2719C180.036 36.0863 180.58 35.9935 181.271 35.9935C181.744 35.9935 182.176 36.0447 182.567 36.1471C182.957 36.2495 183.293 36.4127 183.575 36.6367C183.856 36.8607 184.074 37.1455 184.227 37.4911C184.381 37.8366 184.458 38.259 184.458 38.7582ZM193.347 38.7582H193.731C193.731 37.6574 193.411 36.8575 192.771 36.3583C192.131 35.8591 191.261 35.6095 190.16 35.6095C189.546 35.6095 189.027 35.6863 188.605 35.8399C188.183 35.9935 187.837 36.1919 187.568 36.4351C187.299 36.6783 187.107 36.9471 186.992 37.2415C186.877 37.5359 186.819 37.8174 186.819 38.0862C186.819 38.6238 186.915 39.0526 187.107 39.3726C187.299 39.6926 187.6 39.9422 188.01 40.1214C188.291 40.2494 188.611 40.3646 188.97 40.467C189.328 40.5694 189.744 40.6782 190.218 40.7934C190.64 40.8958 191.056 40.9982 191.466 41.1006C191.875 41.2029 192.237 41.3405 192.55 41.5133C192.864 41.6861 193.12 41.9069 193.318 42.1757C193.517 42.4445 193.616 42.7965 193.616 43.2317C193.616 43.6541 193.517 44.0125 193.318 44.3069C193.12 44.6013 192.867 44.8412 192.56 45.0268C192.253 45.2124 191.91 45.3468 191.533 45.43C191.155 45.5132 190.787 45.5548 190.429 45.5548C189.264 45.5548 188.371 45.2956 187.751 44.7773C187.13 44.2589 186.819 43.4429 186.819 42.3293H186.435C186.435 43.5709 186.771 44.4797 187.443 45.0556C188.115 45.6316 189.111 45.9196 190.429 45.9196C190.851 45.9196 191.277 45.8716 191.706 45.7756C192.134 45.6796 192.518 45.5228 192.858 45.3052C193.197 45.0876 193.472 44.8061 193.683 44.4605C193.894 44.1149 194 43.6925 194 43.1933C194 42.7197 193.907 42.3357 193.722 42.0413C193.536 41.7469 193.293 41.5037 192.992 41.3117C192.691 41.1198 192.352 40.9694 191.974 40.8606C191.597 40.7518 191.216 40.6462 190.832 40.5438C190.294 40.403 189.824 40.2814 189.421 40.179C189.018 40.0766 188.643 39.955 188.298 39.8142C187.965 39.6734 187.699 39.4718 187.501 39.2094C187.303 38.947 187.203 38.5726 187.203 38.0862C187.203 37.9966 187.229 37.8366 187.28 37.6062C187.331 37.3759 187.453 37.1423 187.645 36.9055C187.837 36.6687 188.131 36.4575 188.528 36.2719C188.925 36.0863 189.469 35.9935 190.16 35.9935C190.634 35.9935 191.066 36.0447 191.456 36.1471C191.846 36.2495 192.182 36.4127 192.464 36.6367C192.746 36.8607 192.963 37.1455 193.117 37.4911C193.27 37.8366 193.347 38.259 193.347 38.7582Z" fill="#060606"/>
</svg>
