<svg width="217" height="84" viewBox="0 0 217 84" fill="none" xmlns="http://www.w3.org/2000/svg">
<path fill-rule="evenodd" clip-rule="evenodd" d="M0 0H28.2857V2.57143H2.57143V28.2857H0V0ZM0 55.7143V84H28.2857V81.4286H2.57143V55.7143H0ZM81.4286 2.57143H55.7143V0H84V28.2857H81.4286V2.57143ZM55.7143 81.4286V84H84V55.7143H81.4286V81.4286H55.7143Z" fill="#8D8D8D"/>
<rect width="69" height="69" transform="matrix(-1 0 0 1 77 7)" fill="#474747"/>
<circle r="6" transform="matrix(1 0 0 -1 68 13.5)" stroke="white"/>
<circle r="2.5" transform="matrix(1 0 0 -1 68 13.5)" fill="white"/>
<path d="M74.5 14H119L139 52H216.5" stroke="white"/>
<path d="M46.5226 19.4559C44.0957 16.5716 42.0059 13.6422 41.579 13.0338C41.534 12.9887 41.4666 12.9887 41.4216 13.0338C40.9947 13.6422 38.9049 16.5716 36.4779 19.4559C15.6471 46.0679 39.7588 64.0272 39.7588 64.0272L39.961 64.1624C40.1408 66.9339 40.5902 70.9224 40.5902 70.9224H41.489H42.3879C42.3879 70.9224 42.8373 66.9564 43.0171 64.1624L43.2193 64.0047C43.2418 64.0272 67.3536 46.0679 46.5226 19.4559ZM41.489 63.6215C41.489 63.6215 40.4104 62.6977 40.1183 62.2246V62.1793L41.4216 33.2013C41.4216 33.1112 41.5565 33.1112 41.5565 33.2013L42.8598 62.1793V62.2246C42.5677 62.6977 41.489 63.6215 41.489 63.6215Z" fill="#01EC64"/>
</svg>
