<svg width="210" height="84" viewBox="0 0 210 84" fill="none" xmlns="http://www.w3.org/2000/svg">
<rect x="8" y="7" width="69" height="69" fill="#474747"/>
<path fill-rule="evenodd" clip-rule="evenodd" d="M0 0H28.2857V2.57143H2.57143V28.2857H0V0ZM0 55.7143V84H28.2857V81.4286H2.57143V55.7143H0ZM81.4286 2.57143H55.7143V0H84V28.2857H81.4286V2.57143ZM55.7143 81.4286V84H84V55.7143H81.4286V81.4286H55.7143Z" fill="#8D8D8D"/>
<circle r="6" transform="matrix(1 0 0 -1 66 19.5)" stroke="white"/>
<circle r="2.5" transform="matrix(1 0 0 -1 66 19.5)" fill="white"/>
<path d="M72 19.5H147.5L187 52H209.5" stroke="white"/>
<g clip-path="url(#clip0_78_4)">
<path d="M40.6023 19.5713C41.7139 18.9354 43.1618 18.9325 44.2725 19.5713C49.8602 22.7267 55.4496 25.8772 61.0363 29.0345C62.0871 29.6261 62.79 30.7948 62.7793 32.0048V50.9891C62.7871 52.2492 62.0148 53.4459 60.9062 54.024C55.3369 57.1621 49.7704 60.3039 44.2021 63.442C43.0675 64.0903 41.5905 64.0404 40.4913 63.3389C38.8216 62.3715 37.1491 61.409 35.4793 60.4426C35.138 60.2393 34.7534 60.0775 34.5124 59.7469C34.7254 59.4599 35.1063 59.4242 35.4157 59.2989C36.1127 59.0774 36.7528 58.7219 37.3931 58.3769C37.555 58.2662 37.7526 58.3086 37.9078 58.4077C39.3356 59.2258 40.7508 60.0678 42.1834 60.8781C42.489 61.0544 42.7984 60.8203 43.0596 60.6748C48.5248 57.5878 53.9968 54.5125 59.461 51.4246C59.6635 51.3272 59.7754 51.1124 59.759 50.8908C59.7628 44.6283 59.7599 38.3647 59.7609 32.1022C59.784 31.8507 59.6384 31.6195 59.4109 31.5165C53.8609 28.3929 48.3138 25.2644 42.7647 22.1399C42.6686 22.0739 42.5547 22.0384 42.438 22.0383C42.3213 22.0381 42.2074 22.0732 42.111 22.139C36.562 25.2644 31.0158 28.3957 25.4668 31.5192C25.24 31.6223 25.0879 31.8497 25.1149 32.1022C25.1158 38.3647 25.1149 44.6283 25.1149 50.8918C25.1052 50.9999 25.129 51.1084 25.183 51.2026C25.2369 51.2969 25.3185 51.3723 25.4166 51.4188C26.8974 52.258 28.3801 53.0913 29.8619 53.9277C30.6966 54.3767 31.7216 54.6435 32.6413 54.2995C33.4529 54.0086 34.0218 53.1808 34.0063 52.3196C34.014 46.0937 34.0025 39.8667 34.012 33.6417C33.9918 33.3654 34.2541 33.137 34.523 33.163C35.2345 33.1582 35.9469 33.1535 36.6584 33.1649C36.9554 33.1582 37.1598 33.4558 37.1231 33.7343C37.1202 39.9997 37.1307 46.2652 37.1183 52.5306C37.1202 54.2004 36.4338 56.0173 34.8883 56.8343C32.9844 57.82 30.6312 57.611 28.7502 56.6658C27.1219 55.8536 25.568 54.895 23.9686 54.0248C22.8571 53.4499 22.0886 52.2485 22.0964 50.9893V32.0048C22.0848 30.7697 22.8156 29.5798 23.8991 28.9969C29.4675 25.8563 35.0349 22.7133 40.6023 19.5713Z" fill="#8CC84B"/>
<path d="M45.4601 32.7218C47.8887 32.5656 50.4886 32.6292 52.6741 33.8249C54.3661 34.7412 55.3042 36.6642 55.334 38.5429C55.2867 38.7963 55.0217 38.9361 54.7796 38.9187C54.075 38.9177 53.3702 38.9283 52.6656 38.9139C52.3667 38.9254 52.193 38.65 52.1554 38.3859C51.953 37.487 51.4625 36.5967 50.6159 36.1632C49.3163 35.5129 47.8095 35.5456 46.3924 35.5592C45.3579 35.6141 44.2455 35.7036 43.3691 36.3116C42.6962 36.7721 42.4918 37.7018 42.732 38.4505C42.9584 38.9881 43.5794 39.1616 44.0874 39.3215C47.0142 40.0865 50.1156 40.0104 52.9865 41.0171C54.1751 41.4275 55.3378 42.2254 55.7447 43.4691C56.2769 45.136 56.0436 47.1285 54.8569 48.4667C53.8946 49.5679 52.493 50.1673 51.0951 50.4928C49.2354 50.9072 47.3054 50.9178 45.4169 50.7338C43.641 50.5314 41.793 50.0651 40.422 48.8559C39.2497 47.8386 38.6771 46.2535 38.734 44.7237C38.7476 44.4654 39.0049 44.2852 39.2526 44.3064C39.9622 44.3007 40.6718 44.2988 41.3813 44.3074C41.6647 44.2871 41.8749 44.5319 41.8894 44.7989C42.0203 45.6553 42.3424 46.5542 43.0896 47.062C44.5318 47.9918 46.3413 47.9281 47.9927 47.9541C49.3607 47.8935 50.8964 47.8751 52.0129 46.9715C52.6019 46.456 52.7764 45.5937 52.6172 44.8518C52.4448 44.2255 51.7892 43.9337 51.2262 43.7428C48.3369 42.8294 45.2008 43.1608 42.3395 42.1279C41.1779 41.7176 40.0546 40.942 39.6083 39.7493C38.9856 38.0613 39.271 35.9734 40.582 34.6804C41.8603 33.3942 43.7057 32.8989 45.4601 32.7216V32.7218Z" fill="#8CC84B"/>
</g>
<defs>
<clipPath id="clip0_78_4">
<rect width="40.8847" height="45" fill="white" transform="translate(22 19)"/>
</clipPath>
</defs>
</svg>
