<svg width="210" height="84" viewBox="0 0 210 84" fill="none" xmlns="http://www.w3.org/2000/svg">
<path fill-rule="evenodd" clip-rule="evenodd" d="M210 0H181.714V2.57143H207.429V28.2857H210V0ZM210 55.7143V84H181.714V81.4286H207.429V55.7143H210ZM128.571 2.57143H154.286V0H126V28.2857H128.571V2.57143ZM154.286 81.4286V84H126V55.7143H128.571V81.4286H154.286Z" fill="#8D8D8D"/>
<rect x="133" y="7" width="69" height="69" fill="#474747"/>
<g clip-path="url(#clip0_78_3)">
<path fill-rule="evenodd" clip-rule="evenodd" d="M190 42.1371C190 39.1421 186.268 36.3053 180.544 34.5429C181.866 28.6817 181.277 24.02 178.691 22.5261C178.094 22.1766 177.399 22.011 176.637 22.011V24.0678C177.058 24.0678 177.399 24.1524 177.684 24.307C178.933 25.0244 179.471 27.7619 179.05 31.283C178.948 32.1477 178.783 33.0601 178.582 33.991C176.783 33.5495 174.821 33.2073 172.759 32.9865C171.521 31.283 170.236 29.734 168.943 28.38C171.931 25.5837 174.736 24.0568 176.644 24.0568V22C174.121 22 170.822 23.8066 167.482 26.9414C164.142 23.825 160.842 22.0368 158.319 22.0368V24.0936C160.216 24.0936 163.032 25.6131 166.024 28.3874C164.739 29.7414 163.457 31.2793 162.238 32.9865C160.165 33.2073 158.202 33.5495 156.404 33.9984C156.191 33.0785 156.038 32.1844 155.928 31.3272C155.496 27.806 156.03 25.0686 157.268 24.3401C157.543 24.1745 157.902 24.1009 158.323 24.1009V22.0478C157.554 22.0478 156.854 22.2134 156.25 22.5629C153.672 24.0568 153.093 28.7111 154.426 34.554C148.713 36.32 145 39.1495 145 42.1371C145 45.1321 148.732 47.9689 154.456 49.7313C153.134 55.5925 153.723 60.2542 156.309 61.748C156.906 62.0976 157.601 62.2632 158.374 62.2632C160.897 62.2632 164.197 60.4566 167.537 57.3218C170.876 60.4382 174.176 62.2264 176.699 62.2264C177.468 62.2264 178.168 62.0608 178.772 61.7113C181.35 60.2174 181.929 55.5631 180.596 49.7202C186.287 47.9615 190 45.1211 190 42.1371ZM171.682 42.1371C171.682 39.8117 169.807 37.9242 167.489 37.9242C165.175 37.9242 163.296 39.8081 163.296 42.1371C163.296 44.4661 165.171 46.35 167.489 46.35C169.807 46.3463 171.682 44.4624 171.682 42.1371ZM178.058 35.9889C177.717 37.1773 177.296 38.4026 176.82 39.6278C176.443 38.8919 176.051 38.1524 175.619 37.4165C175.198 36.6806 174.747 35.9595 174.297 35.2604C175.601 35.4554 176.857 35.6946 178.058 35.9889ZM173.857 45.8054C173.143 47.049 172.407 48.2301 171.646 49.3266C170.28 49.448 168.895 49.5105 167.5 49.5105C166.116 49.5105 164.731 49.4443 163.373 49.3339C162.611 48.2375 161.868 47.0674 161.154 45.8312C160.458 44.6243 159.824 43.3991 159.246 42.1629C159.813 40.9266 160.458 39.694 161.143 38.4872C161.857 37.2436 162.593 36.0625 163.354 34.966C164.72 34.8446 166.105 34.7821 167.5 34.7821C168.884 34.7821 170.269 34.8483 171.627 34.9587C172.389 36.0551 173.132 37.2252 173.846 38.4614C174.542 39.6683 175.176 40.8935 175.754 42.1297C175.176 43.3623 174.546 44.5949 173.857 45.8054ZM176.82 44.6059C177.314 45.8422 177.736 47.0748 178.087 48.2743C176.886 48.5686 175.619 48.8188 174.308 49.0101C174.758 48.3 175.205 47.5715 175.63 46.8246C176.047 46.0887 176.443 45.3418 176.82 44.6059ZM167.518 54.4372C166.665 53.5541 165.812 52.5681 164.969 51.49C165.793 51.5268 166.639 51.5562 167.493 51.5562C168.353 51.5562 169.207 51.5378 170.042 51.49C169.214 52.5681 168.361 53.5541 167.518 54.4372ZM160.696 49.0101C159.392 48.8151 158.136 48.576 156.935 48.2816C157.275 47.0932 157.697 45.868 158.173 44.6427C158.55 45.3786 158.942 46.1182 159.374 46.854C159.806 47.5936 160.245 48.3111 160.696 49.0101ZM167.471 29.8333C168.324 30.7164 169.177 31.7025 170.02 32.7805C169.196 32.7437 168.35 32.7143 167.496 32.7143C166.636 32.7143 165.782 32.7327 164.948 32.7805C165.775 31.7025 166.628 30.7164 167.471 29.8333ZM160.685 35.2604C160.234 35.9705 159.788 36.699 159.363 37.4459C158.942 38.1818 158.546 38.9213 158.169 39.6572C157.675 38.421 157.253 37.1884 156.902 35.9889C158.107 35.7019 159.374 35.4554 160.685 35.2604ZM152.383 46.7988C149.135 45.408 147.036 43.5831 147.036 42.1371C147.036 40.6911 149.138 38.8551 152.383 37.4754C153.17 37.1332 154.034 36.8315 154.924 36.5445C155.448 38.351 156.136 40.2312 156.99 42.1555C156.147 44.0724 155.466 45.9415 154.954 47.7408C154.045 47.4538 153.181 47.141 152.383 46.7988ZM157.319 59.9672C156.071 59.2498 155.532 56.5123 155.953 52.9912C156.056 52.1265 156.221 51.2141 156.422 50.2832C158.22 50.7247 160.183 51.0669 162.245 51.2876C163.483 52.9912 164.768 54.5402 166.061 55.8942C163.069 58.6868 160.264 60.2174 158.356 60.2174C157.942 60.2064 157.594 60.1255 157.319 59.9672ZM179.076 52.947C179.508 56.4682 178.973 59.2056 177.736 59.9341C177.461 60.0997 177.102 60.1733 176.681 60.1733C174.784 60.1733 171.968 58.6537 168.976 55.8795C170.261 54.5255 171.543 52.9875 172.762 51.2803C174.835 51.0595 176.798 50.7173 178.596 50.2648C178.809 51.1957 178.973 52.0897 179.076 52.947ZM182.606 46.7988C181.819 47.141 180.955 47.4427 180.065 47.7297C179.541 45.9232 178.853 44.043 177.999 42.1187C178.842 40.2018 179.523 38.3326 180.035 36.5334C180.944 36.8204 181.804 37.1332 182.614 37.4717C185.862 38.8625 187.96 40.6874 187.96 42.1334C187.953 43.5831 185.854 45.4154 182.606 46.7988Z" fill="#00D8FF"/>
</g>
<circle cx="144" cy="19.5" r="6" transform="rotate(-180 144 19.5)" stroke="white"/>
<circle cx="144" cy="19.5" r="2.5" transform="rotate(-180 144 19.5)" fill="white"/>
<path d="M138 19.5H62.5L23 52H0.5" stroke="white"/>
<defs>
<clipPath id="clip0_78_3">
<rect width="45" height="40.2632" fill="white" transform="translate(145 22)"/>
</clipPath>
</defs>
</svg>
