<svg width="206" height="98" viewBox="0 0 206 98" fill="none" xmlns="http://www.w3.org/2000/svg">
<path d="M8 55.5V21H77V90H8" fill="#007ACC"/>
<path d="M23.1282 55.6207V58.4325H32.0982V83.9625H38.4635V58.4325H47.4335V55.6725C47.4335 54.12 47.4335 52.8607 47.3645 52.8262C47.3645 52.7745 41.8962 52.7572 35.255 52.7572L23.18 52.809V55.638L23.1282 55.6207ZM63.4415 52.74C65.201 53.154 66.5465 53.9475 67.754 55.2067C68.3922 55.8967 69.341 57.1042 69.41 57.4147C69.41 57.5182 66.4257 59.5365 64.6145 60.6577C64.5455 60.7095 64.2695 60.4162 63.9935 59.9677C63.0965 58.6912 62.1822 58.1392 60.7505 58.0357C58.6805 57.8977 57.3005 58.9845 57.3005 60.7957C57.3005 61.3477 57.404 61.6582 57.611 62.1067C58.0767 63.0555 58.9392 63.6247 61.613 64.7977C66.5465 66.9195 68.6855 68.3167 69.9792 70.3177C71.4455 72.5602 71.7732 76.0792 70.79 78.7185C69.686 81.5992 66.995 83.5485 63.1482 84.1867C61.9407 84.3937 59.1807 84.3592 57.887 84.135C55.127 83.6175 52.4877 82.2375 50.8662 80.4607C50.228 79.7707 49.0032 77.925 49.0722 77.8042L49.7277 77.3902L52.3152 75.8895L54.2645 74.751L54.713 75.3547C55.2822 76.2517 56.5587 77.4592 57.3005 77.8732C59.543 79.029 62.5445 78.8737 64.028 77.5282C64.6662 76.9417 64.9422 76.3207 64.9422 75.4582C64.9422 74.6647 64.8215 74.3025 64.4247 73.6987C63.8727 72.9397 62.7687 72.3187 59.6637 70.9387C56.093 69.4207 54.575 68.4547 53.1605 66.9712C52.3497 66.0742 51.608 64.677 51.263 63.5212C51.0042 62.5207 50.918 60.0712 51.1595 59.088C51.9012 55.638 54.506 53.223 58.232 52.533C59.4395 52.2915 62.2857 52.395 63.476 52.7055L63.4415 52.74Z" fill="white"/>
<path fill-rule="evenodd" clip-rule="evenodd" d="M0 14H28.2857V16.5714H2.57143V42.2857H0V14ZM0 69.7143V98H28.2857V95.4286H2.57143V69.7143H0ZM81.4286 16.5714H55.7143V14H84V42.2857H81.4286V16.5714ZM55.7143 95.4286V98H84V69.7143H81.4286V95.4286H55.7143Z" fill="#8D8D8D"/>
<circle cx="56.5" cy="33.5" r="6" stroke="white"/>
<circle cx="56.5" cy="33.5" r="2.5" fill="white"/>
<path d="M62.5 33.5H138L177.5 1H205.5" stroke="white"/>
</svg>
