<svg width="217" height="84" viewBox="0 0 217 84" fill="none" xmlns="http://www.w3.org/2000/svg">
<path fill-rule="evenodd" clip-rule="evenodd" d="M216.5 0H188.214V2.57143H213.929V28.2857H216.5V0ZM216.5 55.7143V84H188.214V81.4286H213.929V55.7143H216.5ZM135.071 2.57143H160.786V0H132.5V28.2857H135.071V2.57143ZM160.786 81.4286V84H132.5V55.7143H135.071V81.4286H160.786Z" fill="#8D8D8D"/>
<rect x="139.5" y="7" width="69" height="69" fill="#474747"/>
<circle cx="141.5" cy="33.5" r="6" transform="rotate(-180 141.5 33.5)" stroke="white"/>
<circle cx="141.5" cy="33.5" r="2.5" transform="rotate(-180 141.5 33.5)" fill="white"/>
<path d="M135.5 33.5H97L77.5 52H0" stroke="white"/>
<path d="M177.242 24.7986C177.892 24.7986 178.421 25.3173 178.437 25.9633L178.437 25.9936V39.6719C178.437 40.3218 177.919 40.8505 177.273 40.8666L177.242 40.867H166.089C165.439 40.867 164.91 40.3483 164.894 39.7023L164.894 39.6719V25.9936C164.894 25.3438 165.412 24.8151 166.058 24.799L166.089 24.7986H177.242ZM177.242 25.3303H166.089C165.73 25.3303 165.438 25.6143 165.425 25.9698L165.424 25.9936V39.6719C165.425 40.0307 165.709 40.3228 166.065 40.3359L166.089 40.3363H177.242C177.601 40.3358 177.893 40.0514 177.906 39.6958L177.907 39.6719V25.9936C177.906 25.6271 177.609 25.3303 177.242 25.3303ZM167.682 37.5472V38.3432H166.885V37.5472H167.682ZM176.579 37.5472V38.3432H168.081V37.5472H176.579ZM167.682 34.0947V34.8907H166.885V34.0947H167.682ZM176.579 34.0947V34.8907H168.081V34.0947H176.579ZM167.682 30.7749V31.5709H166.885V30.7749H167.682ZM176.579 30.7749V31.5709H168.081V30.7749H176.579ZM176.579 27.7204V28.5174H166.885V27.7204H176.579Z" fill="#8E8F8F"/>
<path d="M177.242 43.6545V43.6628C177.889 43.6628 178.416 44.1766 178.437 44.8194L178.437 44.8496V58.5279C178.437 59.1778 177.919 59.7065 177.273 59.7226L177.242 59.723H166.089C165.772 59.723 165.468 59.597 165.244 59.3729C165.028 59.1574 164.904 58.8681 164.894 58.5644L164.894 58.5279V44.8496C164.894 44.1997 165.412 43.671 166.058 43.6549L166.089 43.6545H177.242ZM177.242 44.1862H166.089C165.73 44.1862 165.438 44.4703 165.425 44.8258L165.424 44.8496V58.5279C165.425 58.8866 165.709 59.1788 166.065 59.1918L166.089 59.1923H177.242C177.599 59.1917 177.891 58.9098 177.906 58.5557L177.907 58.532V44.8537C177.906 44.4952 177.622 44.2033 177.266 44.1908L177.242 44.1904V44.1862ZM167.682 56.4062V57.2033H166.885V56.4062H167.682ZM176.579 56.4124V57.1971H168.081V56.4124H176.579ZM167.682 52.9537V53.7508H166.885V52.9537H167.682ZM176.579 52.9599V53.7446H168.081V52.9599H176.579ZM167.682 49.6349V50.431H166.885V49.6349H167.682ZM176.579 49.6411V50.4248H168.081V49.6411H176.579ZM176.579 46.5805V47.3775H166.885V46.5805H176.579Z" fill="#8E8F8F"/>
<path d="M180.459 32.833V33.4964H184.442V51.5379H180.459V52.2023H184.442H185.106V51.5379V33.4964V32.833H184.442H180.459Z" fill="#8E8F8F"/>
<path d="M152.078 21.121C152.863 19.8329 154.157 19.0815 155.464 18.6452L155.642 18.5876L155.82 18.5338C155.909 18.5079 155.998 18.4833 156.087 18.46L156.263 18.4151C156.293 18.4079 156.322 18.4008 156.351 18.3939L156.526 18.354C156.555 18.3476 156.584 18.3414 156.613 18.3352L156.786 18.3L156.956 18.2678L157.125 18.2384L157.29 18.2117L157.454 18.1876L157.614 18.166L157.77 18.1467L157.924 18.1297L158.073 18.1147L158.289 18.0959L158.495 18.0811L158.689 18.07L158.9 18.0609L159.094 18.0555L159.212 18.0535L159.321 18.0528H159.42L159.55 18.0544L159.624 18.056L159.758 18.0605L159.817 18.0634V21.2516C156.997 20.9833 155.739 21.835 155.184 22.7427L155.134 22.8279C155.062 22.9559 155.003 23.0843 154.956 23.2103L154.926 23.2938C154.921 23.3077 154.916 23.3215 154.912 23.3353L154.886 23.4173L154.864 23.4982L154.844 23.5776C154.84 23.5907 154.837 23.6037 154.835 23.6167L154.818 23.6936C154.816 23.7063 154.813 23.7189 154.811 23.7314L154.798 23.8053L154.788 23.8771L154.779 23.9465L154.769 24.0456L154.762 24.1383L154.759 24.2109L154.758 24.278L154.758 24.3393L154.759 24.3943L154.761 24.4426L154.764 24.5017L154.771 24.5714L154.771 25.7427L154.764 28.134L154.756 29.8572L154.746 31.3069L154.736 32.5319L154.725 33.4966L154.713 34.4355L154.7 35.236L154.684 36.0843L154.674 36.5262L154.664 36.9437L154.65 37.4089L154.645 37.5545L154.644 37.8237L154.643 37.9885L154.641 38.0997L154.637 38.2682L154.63 38.4309L154.625 38.5301L154.618 38.6296L154.61 38.7296L154.596 38.8799L154.584 38.9803L154.571 39.0809L154.556 39.1814C154.554 39.1982 154.551 39.215 154.548 39.2317L154.53 39.3322C154.527 39.3489 154.524 39.3656 154.52 39.3824L154.499 39.4826L154.476 39.5826L154.45 39.6822C154.441 39.7154 154.432 39.7485 154.422 39.7815L154.392 39.8803L154.358 39.9786L154.322 40.0763C153.914 41.1315 152.989 42.0713 150.895 42.5065C152.932 42.9294 153.862 43.829 154.287 44.848L154.326 44.9454C154.364 45.0431 154.397 45.1419 154.426 45.2412L154.454 45.3408C154.472 45.4074 154.488 45.4742 154.502 45.5411L154.523 45.6416C154.527 45.6584 154.53 45.6752 154.533 45.692L154.55 45.7927L154.566 45.8936L154.58 45.9944L154.592 46.0952L154.603 46.1958L154.612 46.2962L154.619 46.3964L154.628 46.5459L154.633 46.6451L154.639 46.8113L154.641 46.9211L154.643 47.03L154.644 47.1914L154.645 47.4595L154.659 47.9264L154.672 48.4195L154.683 48.9482L154.694 49.508L154.706 50.1942L154.721 51.328L154.732 52.2888L154.737 52.8294L154.749 54.2102L154.761 56.2587L154.769 58.476L154.772 58.4741V60.4405L154.769 60.4683L154.765 60.5102L154.763 60.5478L154.76 60.6176L154.759 60.6726L154.759 60.7339L154.76 60.801L154.763 60.8737L154.77 60.9651L154.776 61.0296L154.788 61.1313L154.799 61.202L154.811 61.2749L154.826 61.3497C154.828 61.3624 154.831 61.3751 154.834 61.3879L154.852 61.4653C154.855 61.4784 154.859 61.4915 154.862 61.5046L154.884 61.5843L154.909 61.6652C154.913 61.6788 154.918 61.6924 154.923 61.706L154.952 61.7884C154.962 61.816 154.973 61.8437 154.984 61.8715L155.02 61.9552C155.463 62.9481 156.631 64.0207 159.652 63.7749L159.818 63.7603V66.9485L159.733 66.9525L159.576 66.9571L159.447 66.9593H159.294L159.179 66.9581L159.055 66.9557L158.921 66.9519L158.748 66.9449L158.625 66.9387L158.498 66.9312L158.366 66.9221L158.23 66.9114L158.09 66.899L157.945 66.8847L157.797 66.8685L157.645 66.8502L157.49 66.8296C157.464 66.826 157.438 66.8223 157.412 66.8185L157.253 66.7945C157.226 66.7903 157.199 66.786 157.172 66.7816L157.009 66.7539C156.982 66.749 156.955 66.7441 156.927 66.739L156.761 66.7072C156.733 66.7017 156.705 66.6961 156.677 66.6903L156.509 66.6543L156.339 66.6152C156.282 66.6017 156.225 66.5877 156.168 66.5731L155.996 66.5277C154.416 66.0968 152.756 65.2456 151.902 63.5773C152.087 61.5265 152.93 59.7782 154.445 58.6901C154.517 58.6398 154.589 58.5911 154.662 58.5438L154.744 58.4914C154.642 58.5548 154.541 58.6217 154.442 58.6921C152.93 59.7782 152.087 61.5265 151.902 63.569C151.522 62.8016 151.323 61.9572 151.32 61.1008L151.301 60.2218L151.276 59.1563L151.245 57.9091L151.203 56.3195L151.165 54.9408L151.111 53.1357L151.052 51.2023L150.951 48.1598L150.927 47.4543C150.868 45.8571 150.227 45.0791 149.559 44.7036L149.481 44.6612C149.468 44.6545 149.455 44.6478 149.441 44.6414L149.363 44.6043C149.337 44.5925 149.311 44.5813 149.285 44.5706L149.207 44.54C149.181 44.5304 149.155 44.5212 149.13 44.5125L149.053 44.4879C149.028 44.4802 149.003 44.4729 148.978 44.466L148.918 44.4503L148.86 44.4361L148.802 44.4235L148.745 44.4123L148.663 44.3981L148.61 44.3901L148.558 44.3833L148.483 44.3752L148.418 44.3748L148.283 44.3732C148.215 44.3724 148.145 44.3719 148.073 44.3732L148 44.3752V40.6388C148.175 40.645 148.331 40.6419 148.483 40.6337L148.558 40.6255L148.61 40.6187L148.663 40.6108L148.745 40.5965L148.802 40.5853L148.86 40.5727L148.918 40.5586L148.978 40.5428L149.053 40.5209L149.13 40.4963L149.207 40.4688C149.982 40.1788 150.857 39.4336 150.927 37.5545L151.018 34.8525L151.088 32.6452L151.126 31.3925L151.184 29.3831L151.222 27.9855L151.25 26.921L151.285 25.4957L151.305 24.6095L151.32 23.9071C151.343 22.7999 151.616 21.9012 152.049 21.1715L152.078 21.1233L152.078 21.121ZM190.182 21.1992V18.011L190.268 18.0069L190.387 18.0032L190.464 18.0016L190.6 18.0002H190.704L190.818 18.0014L190.994 18.005L191.218 18.013L191.338 18.0187L191.463 18.0259L191.659 18.0393L191.796 18.0502L191.936 18.0629L192.081 18.0775L192.229 18.094L192.38 18.1125L192.534 18.1333L192.692 18.1564L192.852 18.1818C192.879 18.1863 192.906 18.1908 192.933 18.1955L193.096 18.2248L193.261 18.2568L193.429 18.2916L193.597 18.3293L193.767 18.3701C193.852 18.3912 193.938 18.4135 194.023 18.4371L194.195 18.4859C195.8 18.9574 197.45 19.8765 198.226 21.6558C198.521 22.3513 198.675 23.0982 198.68 23.8536L198.699 24.7327L198.724 25.7983L198.741 26.5114L198.769 27.5785L198.806 28.9841L198.835 30.0143L198.889 31.8195L198.948 33.753L199.049 36.7956L199.073 37.501C199.133 39.1248 199.795 39.9015 200.474 40.2698L200.552 40.3105C200.565 40.317 200.578 40.3233 200.592 40.3295L200.67 40.3651L200.748 40.3974C200.761 40.4025 200.774 40.4075 200.786 40.4124L200.863 40.4401C200.876 40.4444 200.889 40.4487 200.902 40.4528L200.977 40.4763C200.99 40.48 201.002 40.4835 201.015 40.487L201.126 40.5155L201.198 40.5316L201.269 40.5454L201.337 40.5571L201.39 40.5651L201.442 40.572L201.517 40.5802C201.647 40.5873 201.783 40.5905 201.927 40.5874L202 40.5854V44.3227C201.825 44.3165 201.669 44.3196 201.517 44.3279L201.467 44.333L201.416 44.3393L201.337 44.3507L201.255 44.365L201.198 44.3762L201.14 44.3888L201.082 44.403L201.022 44.4187L200.984 44.4293L200.909 44.4526C200.896 44.4567 200.883 44.4609 200.87 44.4652L200.793 44.4927C200.78 44.4976 200.767 44.5025 200.754 44.5076L200.676 44.5397C199.932 44.8601 199.139 45.6219 199.073 47.407L198.982 50.1076L198.912 52.315L198.874 53.5678L198.816 55.5775L198.778 56.9752L198.75 58.0398L198.715 59.465L198.695 60.3511L198.68 61.0535C198.674 61.7106 198.558 62.3618 198.335 62.9798L198.309 63.0522L198.31 63.0589C197.515 65.1125 195.592 66.0779 193.816 66.5272L193.642 66.5698C193.613 66.5766 193.584 66.5833 193.555 66.5899L193.383 66.6276C193.355 66.6337 193.326 66.6396 193.298 66.6454L193.128 66.6787C193.1 66.684 193.072 66.6892 193.044 66.6943L192.877 66.7233C192.85 66.728 192.822 66.7325 192.795 66.7369L192.632 66.762L192.472 66.7847L192.315 66.8049L192.162 66.823L192.012 66.8389L191.866 66.8528L191.655 66.8702L191.521 66.8797L191.327 66.891L191.146 66.8991L190.924 66.9058L190.798 66.908L190.682 66.9089H190.577L190.484 66.9077L190.402 66.9062L190.302 66.9033L190.215 66.8997L190.185 66.8981V63.7099C193.137 63.9908 194.378 63.0443 194.892 62.091L194.936 62.0056C194.95 61.9772 194.963 61.9488 194.976 61.9204L195.013 61.8356C195.025 61.8074 195.036 61.7793 195.046 61.7513L195.076 61.6677L195.103 61.5851C195.108 61.5714 195.112 61.5578 195.116 61.5442L195.139 61.4634L195.158 61.384L195.176 61.3062L195.191 61.2302L195.204 61.1562L195.214 61.0844L195.223 61.0151L195.233 60.9159L195.238 60.8534L195.243 60.7507L195.244 60.6835L195.244 60.6222L195.243 60.5672L195.241 60.5189L195.239 60.4777L195.234 60.418L195.231 60.3901V58.6417L195.236 57.0139L195.244 55.3342L195.253 53.9186L195.266 52.4735L195.28 51.1765L195.29 50.4224L195.3 49.8151L195.312 49.1186L195.321 48.6777L195.331 48.2583L195.341 47.8629L195.355 47.406L195.356 47.1379L195.357 46.9748L195.359 46.8648L195.362 46.7538L195.367 46.5859L195.373 46.4731L195.379 46.3728L195.386 46.2721L195.395 46.1711L195.405 46.0699L195.417 45.9685L195.431 45.867C195.433 45.8501 195.435 45.8332 195.438 45.8163L195.454 45.7148L195.473 45.6135L195.493 45.5122L195.516 45.4112C195.544 45.2936 195.576 45.1765 195.615 45.0606L195.649 44.9615C195.697 44.8297 195.752 44.6996 195.816 44.5719L195.866 44.4766C196.348 43.5911 197.285 42.8313 199.105 42.453C196.809 41.9764 195.919 40.8947 195.574 39.7189L195.546 39.6194C195.528 39.5528 195.512 39.4861 195.498 39.4191L195.477 39.3186C195.473 39.3019 195.47 39.2851 195.467 39.2683L195.45 39.1676L195.434 39.0668L195.42 38.966L195.408 38.8652L195.397 38.7646L195.388 38.6642L195.381 38.5641L195.372 38.4145L195.367 38.3153L195.361 38.1492L195.359 38.0394L195.357 37.9305L195.356 37.7691L195.355 37.501L195.345 37.1895L195.334 36.7934L195.322 36.2836L195.311 35.7407L195.301 35.1691L195.288 34.3702L195.274 33.2215L195.263 32.148L195.253 30.9044L195.239 28.6932L195.231 26.2972C195.412 26.197 195.588 26.0872 195.757 25.9681C196.602 25.3629 197.238 24.5475 197.667 23.5882L197.696 23.521C197.267 24.5095 196.62 25.3492 195.754 25.9691C195.613 26.0683 195.467 26.1612 195.318 26.2473L195.228 26.2982V24.519L195.231 24.4911L195.235 24.4493L195.237 24.4117L195.24 24.3419L195.241 24.2869L195.241 24.2256L195.24 24.1584L195.237 24.0858L195.233 24.0256L195.224 23.9299L195.212 23.8282L195.201 23.7575L195.189 23.6846L195.174 23.6097C195.172 23.5971 195.169 23.5844 195.166 23.5716L195.148 23.4942C195.145 23.4811 195.141 23.468 195.138 23.4548L195.116 23.3752L195.091 23.2943C195.087 23.2807 195.082 23.2671 195.077 23.2535L195.048 23.1711C195.038 23.1435 195.027 23.1158 195.016 23.088L194.98 23.0043C194.537 22.0114 193.369 20.9387 190.348 21.1846L190.182 21.1992Z" fill="#FE0902"/>
<path d="M154.575 25.6131C154.607 25.6362 154.639 25.6581 154.672 25.6794L154.771 25.7427V24.5713L154.768 24.5434L154.764 24.5015L154.762 24.464L154.759 24.3941L154.758 24.3391L154.758 24.2779L154.759 24.2107L154.762 24.1381L154.766 24.0771L154.772 24.0131L154.779 23.9463L154.788 23.8769L154.798 23.8052L154.811 23.7312L154.826 23.6552C154.829 23.6424 154.832 23.6295 154.835 23.6165L154.853 23.5379L154.875 23.4577C154.878 23.4443 154.882 23.4307 154.886 23.4171L154.912 23.3351C154.916 23.3213 154.921 23.3075 154.926 23.2936L154.956 23.2101C155.003 23.0841 155.062 22.9557 155.134 22.8277L155.184 22.7425C155.739 21.8348 156.997 20.9831 159.817 21.2514V18.0633L159.758 18.0603L159.656 18.0567L159.588 18.0549L159.42 18.0527L159.321 18.0526L159.212 18.0534L159.031 18.0567L158.866 18.0619L158.689 18.0698L158.495 18.081L158.289 18.0957L158.146 18.1078L157.924 18.1295L157.77 18.1465L157.614 18.1658L157.454 18.1874L157.29 18.2115L157.125 18.2382L156.956 18.2676L156.786 18.2998L156.613 18.3351C156.584 18.3412 156.555 18.3474 156.526 18.3538L156.351 18.3937C156.322 18.4007 156.293 18.4077 156.263 18.4149L156.087 18.4598C155.998 18.4831 155.909 18.5077 155.82 18.5336L155.642 18.5874L155.464 18.645C154.157 19.0813 152.863 19.8327 152.078 21.1208C152.332 23.0019 153.161 24.6052 154.575 25.6131ZM159.818 66.9483V63.7601C156.734 64.0536 155.518 63.0073 155.047 62.0132L155.008 61.9282C154.99 61.8857 154.973 61.8435 154.957 61.8015L154.927 61.7179C154.922 61.7041 154.917 61.6903 154.913 61.6765L154.887 61.5944L154.865 61.5136L154.845 61.4342L154.827 61.3564L154.812 61.2804L154.799 61.2064L154.789 61.1346L154.78 61.0653L154.77 60.9661L154.763 60.8735L154.76 60.8009L154.759 60.7337L154.759 60.6724L154.76 60.6175L154.762 60.5691L154.764 60.5279L154.769 60.4682L154.772 60.4385V58.4739C154.661 58.5425 154.552 58.6145 154.445 58.6899C152.93 59.778 152.087 61.5264 151.902 63.5771C152.756 65.2454 154.416 66.0966 155.996 66.5275L156.168 66.5729C156.225 66.5875 156.282 66.6015 156.339 66.615L156.509 66.6541L156.677 66.6901L156.844 66.7233C156.872 66.7286 156.9 66.7338 156.927 66.7388L157.091 66.7679C157.118 66.7725 157.145 66.777 157.172 66.7814L157.333 66.8067C157.359 66.8107 157.386 66.8146 157.412 66.8184L157.568 66.84C157.594 66.8434 157.62 66.8467 157.645 66.85L157.797 66.8683L157.945 66.8845L158.09 66.8988L158.23 66.9112L158.366 66.9219L158.498 66.931L158.625 66.9386L158.807 66.9474L158.921 66.9517L159.055 66.9555L159.179 66.9579L159.294 66.959L159.447 66.9588L159.576 66.957L159.679 66.9543L159.818 66.9483ZM198.226 21.6556C197.401 19.7631 195.587 18.8437 193.889 18.401L193.72 18.3584L193.552 18.3187C193.524 18.3124 193.496 18.3061 193.468 18.3L193.302 18.2648C193.274 18.2592 193.247 18.2536 193.219 18.2482L193.056 18.2172L192.894 18.1887L192.735 18.1628L192.578 18.1392L192.423 18.118L192.272 18.099L192.124 18.082L191.98 18.067L191.839 18.0538L191.636 18.0373L191.442 18.0244L191.259 18.0146L191.087 18.0077L190.979 18.0044L190.85 18.0017L190.73 18.0003L190.62 18L190.522 18.0006L190.435 18.0019L190.327 18.0046L190.248 18.0075L190.182 18.0108V21.199C193.266 20.9055 194.482 21.9519 194.953 22.9459L194.992 23.031C195.01 23.0734 195.027 23.1157 195.043 23.1576L195.073 23.2412C195.078 23.255 195.083 23.2689 195.087 23.2826L195.113 23.3647L195.135 23.4455L195.155 23.525L195.173 23.6028L195.188 23.6787L195.201 23.7527L195.211 23.8245L195.22 23.8939L195.23 23.993L195.237 24.0856L195.24 24.1583L195.241 24.2254L195.241 24.2867L195.24 24.3417L195.238 24.39L195.235 24.4491L195.228 24.5193V26.298C195.409 26.1979 195.585 26.088 195.754 25.9689C197.125 24.9878 197.946 23.4564 198.226 21.6556ZM195.89 59.0457C195.68 58.8962 195.459 58.7611 195.231 58.6416V60.3899L195.234 60.4178L195.238 60.4596L195.24 60.4972L195.243 60.5671L195.244 60.622L195.244 60.6833L195.243 60.7505L195.238 60.8532L195.233 60.9157L195.223 61.0149L195.214 61.0843L195.204 61.156L195.191 61.23L195.176 61.306L195.158 61.3838L195.139 61.4632L195.116 61.544C195.112 61.5576 195.108 61.5713 195.103 61.5849L195.076 61.6675L195.046 61.7511C195.036 61.7791 195.025 61.8072 195.013 61.8354L194.976 61.9202C194.963 61.9486 194.95 61.977 194.936 62.0054L194.892 62.0908C194.378 63.0441 193.137 63.9906 190.185 63.7097V66.8979L190.232 66.9004L190.368 66.9052L190.535 66.9082L190.636 66.9087L190.809 66.9077L190.938 66.9054L191.076 66.9015L191.247 66.8947L191.43 66.8852L191.558 66.8771L191.758 66.862L191.896 66.8499L192.039 66.836L192.185 66.8202L192.335 66.8023L192.488 66.7824L192.643 66.7602L192.802 66.7356C192.828 66.7313 192.855 66.7269 192.882 66.7224L193.044 66.6941L193.208 66.6632C193.235 66.6578 193.263 66.6523 193.29 66.6467L193.457 66.6116C193.485 66.6055 193.513 66.5993 193.541 66.5929L193.71 66.5534C195.514 66.1159 197.499 65.1534 198.31 63.0587C197.989 61.3855 197.181 59.9703 195.89 59.0457Z" fill="#FFAB00"/>
</svg>
